<svg width="110" height="118" viewBox="0 0 110 118" fill="none" xmlns="http://www.w3.org/2000/svg">
<path d="M52 22L22 1L16 39L1 69.5L43 117H67.5L109 69.5L94 39L87.5 1L58 22H52Z" stroke="#AFB0E5"/>
<path d="M23.5 39.5L27.5 15L38 32.5L23.5 39.5Z" stroke="#AFB0E5"/>
<path d="M72 33L82.5 14.5L86.5 39.5L72 33Z" stroke="#AFB0E5"/>
<path d="M51.5 64L34 48L13 60.5L10 68.5L22.5 82.5L29 75L32 93L45.5 108.5L53 111V108.5L44 100L50.5 97.5H60L66 100L57.5 108.5V111L65 108.5L78.5 92L81.5 75L88 82.5L100 68.5L96.5 60.5L76 48L58.5 64L55.5 72L51.5 64Z" stroke="#AFB0E5"/>
<path d="M40 65.5L31.5 62.5L35.5 71L44.5 74L40 65.5Z" stroke="#AFB0E5"/>
<path d="M78.5 62.5L70 65.5L65.5 74L75 71L78.5 62.5Z" stroke="#AFB0E5"/>
</svg>
